<svg xmlns="http://www.w3.org/2000/svg" viewBox="0 0 100 100"><path fill="#c7ede6" d="M87.215,56.71C88.35,54.555,89,52.105,89,49.5c0-6.621-4.159-12.257-10.001-14.478 C78.999,35.015,79,35.008,79,35c0-11.598-9.402-21-21-21c-9.784,0-17.981,6.701-20.313,15.757C36.211,29.272,34.638,29,33,29 c-7.692,0-14.023,5.793-14.89,13.252C12.906,43.353,9,47.969,9,53.5C9,59.851,14.149,65,20.5,65c0.177,0,0.352-0.012,0.526-0.022 C21.022,65.153,21,65.324,21,65.5C21,76.822,30.178,86,41.5,86c6.437,0,12.175-2.972,15.934-7.614C59.612,80.611,62.64,82,66,82 c4.65,0,8.674-2.65,10.666-6.518C77.718,75.817,78.837,76,80,76c6.075,0,11-4.925,11-11C91,61.689,89.53,58.727,87.215,56.71z"/><path fill="#fdfcef" d="M76.5,40.5V41h-3v-0.5c0,0-4.242,0-5.5,0c-2.485,0-4.5-2.015-4.5-4.5 c0-2.333,1.782-4.229,4.055-4.455C67.533,31.364,67.5,31.187,67.5,31c0-2.485,2.015-4.5,4.5-4.5c1.438,0,2.703,0.686,3.527,1.736 C75.667,25.6,77.829,23.5,80.5,23.5c2.761,0,5,2.239,5,5c0,0.446-0.077,0.87-0.187,1.282c0.642-0.777,1.6-1.282,2.687-1.282 c1.781,0,3.234,1.335,3.455,3.055C91.636,31.533,91.813,31.5,92,31.5c2.485,0,4.5,2.015,4.5,4.5s-2.015,4.5-4.5,4.5s-9.5,0-9.5,0 H76.5z"/><path fill="#472b29" d="M80.5,23c3.033,0,5.5,2.467,5.5,5.5c0,0.016,0,0.031,0,0.047C86.602,28.192,87.29,28,88,28 c1.831,0,3.411,1.261,3.858,3.005C91.905,31.002,91.952,31,92,31c2.757,0,5,2.243,5,5s-2.243,5-5,5H76.5 c-0.276,0-0.5-0.224-0.5-0.5s0.224-0.5,0.5-0.5H92c2.206,0,4-1.794,4-4s-1.794-4-4-4c-0.117,0-0.23,0.017-0.343,0.032 l-0.141,0.019c-0.021,0.003-0.041,0.004-0.062,0.004c-0.246,0-0.462-0.185-0.495-0.437C90.768,30.125,89.496,29,88,29 c-0.885,0-1.723,0.401-2.301,1.1c-0.098,0.118-0.241,0.182-0.386,0.182c-0.078,0-0.156-0.018-0.228-0.056 c-0.209-0.107-0.314-0.346-0.254-0.573C84.946,29.218,85,28.852,85,28.5c0-2.481-2.019-4.5-4.5-4.5 c-2.381,0-4.347,1.872-4.474,4.263c-0.011,0.208-0.15,0.387-0.349,0.45c-0.05,0.016-0.101,0.024-0.152,0.024 c-0.15,0-0.296-0.069-0.392-0.192C74.362,27.563,73.221,27,72,27c-2.206,0-4,1.794-4,4c0,0.117,0.017,0.23,0.032,0.343 l0.019,0.141c0.016,0.134-0.022,0.268-0.106,0.373c-0.084,0.105-0.207,0.172-0.34,0.185C65.549,32.247,64,33.949,64,36 c0,2.206,1.794,4,4,4h5.5c0.276,0,0.5,0.224,0.5,0.5S73.776,41,73.5,41H68c-2.757,0-5-2.243-5-5c0-2.397,1.689-4.413,4.003-4.877 C67.001,31.082,67,31.041,67,31c0-2.757,2.243-5,5-5c1.176,0,2.293,0.416,3.183,1.164C75.781,24.76,77.945,23,80.5,23L80.5,23z"/><path fill="#472b29" d="M82,30c1.403,0,2.609,0.999,2.913,2.341C85.28,32.119,85.699,32,86.125,32 c1.202,0,2.198,0.897,2.353,2.068C88.681,34.022,88.874,34,89.063,34c1.529,0,2.811,1.2,2.918,2.732 C91.99,36.87,91.886,36.99,91.749,37c-0.006,0-0.012,0-0.018,0c-0.13,0-0.24-0.101-0.249-0.232 c-0.089-1.271-1.151-2.268-2.419-2.268c-0.229,0-0.47,0.042-0.738,0.127c-0.022,0.007-0.045,0.01-0.067,0.01 c-0.055,0-0.11-0.02-0.156-0.054C88.038,34.537,88,34.455,88,34.375c0-1.034-0.841-1.875-1.875-1.875 c-0.447,0-0.885,0.168-1.231,0.473c-0.047,0.041-0.106,0.063-0.165,0.063c-0.032,0-0.063-0.006-0.093-0.019 c-0.088-0.035-0.148-0.117-0.155-0.212C84.377,31.512,83.288,30.5,82,30.5c-0.208,0-0.425,0.034-0.682,0.107 c-0.023,0.007-0.047,0.01-0.07,0.01c-0.109,0-0.207-0.073-0.239-0.182c-0.038-0.133,0.039-0.271,0.172-0.309 C81.483,30.04,81.744,30,82,30L82,30z"/><path fill="#472b29" d="M68.117,31.5c1.326,0,2.508,0.897,2.874,2.182c0.038,0.133-0.039,0.271-0.172,0.309 C70.795,33.997,70.772,34,70.75,34c-0.109,0-0.209-0.072-0.24-0.182C70.205,32.748,69.221,32,68.117,32 c-0.117,0-0.23,0.014-0.342,0.029c-0.012,0.002-0.023,0.003-0.035,0.003c-0.121,0-0.229-0.092-0.246-0.217 c-0.019-0.137,0.077-0.263,0.214-0.281C67.842,31.516,67.978,31.5,68.117,31.5L68.117,31.5z"/><path fill="#fff" d="M15.5,58h-10C5.224,58,5,57.776,5,57.5S5.224,57,5.5,57h10c0.276,0,0.5,0.224,0.5,0.5 S15.777,58,15.5,58z"/><path fill="#fff" d="M18.5,58h-1c-0.276,0-0.5-0.224-0.5-0.5s0.224-0.5,0.5-0.5h1c0.276,0,0.5,0.224,0.5,0.5 S18.777,58,18.5,58z"/><path fill="#fff" d="M23.491,60H14.5c-0.276,0-0.5-0.224-0.5-0.5s0.224-0.5,0.5-0.5h8.991c0.276,0,0.5,0.224,0.5,0.5 S23.767,60,23.491,60z"/><path fill="#fff" d="M12.5,60h-1c-0.276,0-0.5-0.224-0.5-0.5s0.224-0.5,0.5-0.5h1c0.276,0,0.5,0.224,0.5,0.5 S12.777,60,12.5,60z"/><path fill="#fff" d="M9.5,60h-2C7.224,60,7,59.776,7,59.5S7.224,59,7.5,59h2c0.276,0,0.5,0.224,0.5,0.5S9.777,60,9.5,60 z"/><path fill="#fff" d="M15.5,62h-2c-0.276,0-0.5-0.224-0.5-0.5s0.224-0.5,0.5-0.5h2c0.276,0,0.5,0.224,0.5,0.5 S15.776,62,15.5,62z"/><path fill="#fff" d="M18.5,53c-0.177,0-0.823,0-1,0c-0.276,0-0.5,0.224-0.5,0.5c0,0.276,0.224,0.5,0.5,0.5 c0.177,0,0.823,0,1,0c0.276,0,0.5-0.224,0.5-0.5C19,53.224,18.776,53,18.5,53z"/><path fill="#fff" d="M18.5,55c-0.177,0-4.823,0-5,0c-0.276,0-0.5,0.224-0.5,0.5c0,0.276,0.224,0.5,0.5,0.5 c0.177,0,4.823,0,5,0c0.276,0,0.5-0.224,0.5-0.5C19,55.224,18.776,55,18.5,55z"/><path fill="#fff" d="M23.5,57c-0.177,0-2.823,0-3,0c-0.276,0-0.5,0.224-0.5,0.5c0,0.276,0.224,0.5,0.5,0.5 c0.177,0,2.823,0,3,0c0.276,0,0.5-0.224,0.5-0.5C24,57.224,23.776,57,23.5,57z"/><g><path fill="#fff" d="M86.5,52h-10c-0.276,0-0.5-0.224-0.5-0.5s0.224-0.5,0.5-0.5h10c0.276,0,0.5,0.224,0.5,0.5 S86.776,52,86.5,52z"/><path fill="#fff" d="M90.5,52h-2c-0.276,0-0.5-0.224-0.5-0.5s0.224-0.5,0.5-0.5h2c0.276,0,0.5,0.224,0.5,0.5 S90.776,52,90.5,52z"/><path fill="#fff" d="M95.5,54h-10c-0.276,0-0.5-0.224-0.5-0.5s0.224-0.5,0.5-0.5h10c0.276,0,0.5,0.224,0.5,0.5 S95.777,54,95.5,54z"/><path fill="#fff" d="M83.5,54h-1c-0.276,0-0.5-0.224-0.5-0.5s0.224-0.5,0.5-0.5h1c0.276,0,0.5,0.224,0.5,0.5 S83.776,54,83.5,54z"/><path fill="#fff" d="M80.47,54H78.5c-0.276,0-0.5-0.224-0.5-0.5s0.224-0.5,0.5-0.5h1.97c0.276,0,0.5,0.224,0.5,0.5 S80.746,54,80.47,54z"/><path fill="#fff" d="M89.5,50h-5c-0.276,0-0.5-0.224-0.5-0.5s0.224-0.5,0.5-0.5h5c0.276,0,0.5,0.224,0.5,0.5 S89.777,50,89.5,50z"/><path fill="#fff" d="M86.5,56h-2c-0.276,0-0.5-0.224-0.5-0.5s0.224-0.5,0.5-0.5h2c0.276,0,0.5,0.224,0.5,0.5 S86.776,56,86.5,56z"/></g><g><path fill="#fdfcef" d="M20.5,44.5c0,0-1.567,0-3.5,0s-3.5-1.567-3.5-3.5c0-1.781,1.335-3.234,3.055-3.455 C16.527,37.366,16.5,37.187,16.5,37c0-1.933,1.567-3.5,3.5-3.5c1.032,0,1.95,0.455,2.59,1.165c0.384-1.808,1.987-3.165,3.91-3.165 c2.209,0,4,1.791,4,4c0,0.191-0.03,0.374-0.056,0.558C30.872,35.714,31.408,35.5,32,35.5c1.228,0,2.245,0.887,2.455,2.055 C34.634,37.527,34.813,37.5,35,37.5c1.933,0,3.5,1.567,3.5,3.5s-1.567,3.5-3.5,3.5s-7.5,0-7.5,0V45h-7V44.5z"/><path fill="#472b29" d="M18.75,40c0.138,0,0.25-0.112,0.25-0.25c0-1.223-0.995-2.218-2.218-2.218 c-0.034,0.009-0.737-0.001-1.244,0.136c-0.133,0.036-0.212,0.173-0.176,0.306c0.036,0.134,0.173,0.213,0.306,0.176 c0.444-0.12,1.1-0.12,1.113-0.118c0.948,0,1.719,0.771,1.719,1.718C18.5,39.888,18.612,40,18.75,40z"/><circle cx="25.5" cy="44.5" r=".5" fill="#472b29"/><path fill="#472b29" d="M17,45h3.5c0.276,0,0.5-0.224,0.5-0.5S20.776,44,20.5,44H17c-1.654,0-3-1.346-3-3 c0-1.496,1.125-2.768,2.618-2.959c0.134-0.018,0.255-0.088,0.336-0.196s0.115-0.244,0.094-0.377C17.025,37.314,17,37.16,17,37 c0-1.654,1.346-3,3-3c0.85,0,1.638,0.355,2.219,1c0.125,0.139,0.321,0.198,0.5,0.148c0.182-0.049,0.321-0.195,0.36-0.379 C23.42,33.165,24.859,32,26.5,32c1.93,0,3.5,1.57,3.5,3.5c0,0.143-0.021,0.28-0.041,0.418c-0.029,0.203,0.063,0.438,0.242,0.54 c0.179,0.102,0.396,0.118,0.556-0.01C31.122,36.155,31.551,36,32,36c0.966,0,1.792,0.691,1.963,1.644 c0.048,0.267,0.296,0.446,0.569,0.405C34.686,38.025,34.84,38,35,38c1.654,0,3,1.346,3,3s-1.346,3-3,3h-7.5 c-0.276,0-0.5,0.224-0.5,0.5s0.224,0.5,0.5,0.5H35c2.206,0,4-1.794,4-4s-1.794-4-4-4c-0.059,0-0.116,0.002-0.174,0.006 C34.412,35.82,33.289,35,32,35c-0.349,0-0.689,0.061-1.011,0.18C30.824,32.847,28.874,31,26.5,31 c-1.831,0-3.466,1.127-4.153,2.774C21.667,33.276,20.845,33,20,33c-2.206,0-4,1.794-4,4c0,0.048,0.001,0.095,0.004,0.142 C14.261,37.59,13,39.169,13,41C13,43.206,14.794,45,17,45z"/><path fill="#472b29" d="M22.5,44c0.159,0,0.841,0,1,0c0.276,0,0.5,0.224,0.5,0.5c0,0.276-0.224,0.5-0.5,0.5 c-0.159,0-0.841,0-1,0c-0.276,0-0.5-0.224-0.5-0.5C22,44.224,22.224,44,22.5,44z"/></g><g><path fill="#fbcd59" d="M34.708,71.3C34.703,71.2,34.7,71.101,34.7,71c0-10.642,8.434-19.3,18.8-19.3S72.3,60.358,72.3,71 c0,0.101-0.003,0.2-0.008,0.3H34.708z"/><path fill="#472b29" d="M53.5,52.4c9.85,0,17.888,8.128,18.096,18.2H35.404C35.612,60.528,43.65,52.4,53.5,52.4 M53.5,51 C42.73,51,34,59.954,34,71c0,0.337,0.033,0.667,0.049,1h38.902C72.967,71.667,73,71.337,73,71C73,59.954,64.27,51,53.5,51 L53.5,51z"/><path fill="#472b29" d="M59.29,56.797c-0.036,0-0.073-0.008-0.108-0.025c-1.241-0.595-2.551-1.022-3.893-1.269 c-0.136-0.025-0.226-0.155-0.201-0.291c0.025-0.135,0.158-0.228,0.291-0.201c1.386,0.254,2.738,0.695,4.02,1.31 c0.124,0.06,0.177,0.209,0.117,0.333C59.473,56.744,59.383,56.797,59.29,56.797z"/><path fill="#472b29" d="M68.477,68.365c-0.113,0-0.215-0.077-0.243-0.191c-1.016-4.169-3.455-7.768-6.868-10.132 c-0.113-0.079-0.142-0.234-0.063-0.348c0.078-0.114,0.234-0.141,0.348-0.063c3.514,2.434,6.024,6.137,7.069,10.425 c0.032,0.134-0.05,0.269-0.184,0.302C68.516,68.363,68.496,68.365,68.477,68.365z"/><path fill="#472b29" d="M79,72H29c-0.553,0-1-0.448-1-1s0.447-1,1-1h50c0.553,0,1,0.448,1,1S79.553,72,79,72z"/><polygon fill="#00a5a5" points="60.889,31.611 53.5,24.222 46.111,31.611 48.232,33.732 52,29.965 52,40 55,40 55,29.965 58.768,33.732"/><path fill="#472b29" d="M55,40.25h-3c-0.138,0-0.25-0.112-0.25-0.25v-9.432l-3.341,3.341c-0.098,0.098-0.256,0.098-0.354,0 l-2.121-2.121c-0.098-0.098-0.098-0.256,0-0.354l7.389-7.39c0.094-0.094,0.26-0.094,0.354,0l7.389,7.39 c0.098,0.098,0.098,0.256,0,0.354l-2.121,2.121c-0.098,0.098-0.256,0.098-0.354,0l-3.341-3.341V40 C55.25,40.138,55.138,40.25,55,40.25z M52.25,39.75h2.5v-9.785c0-0.101,0.061-0.192,0.154-0.231c0.094-0.04,0.2-0.017,0.272,0.054 l3.591,3.591l1.768-1.768L53.5,24.575l-7.035,7.036l1.768,1.768l3.591-3.591c0.071-0.071,0.178-0.094,0.272-0.054 c0.094,0.039,0.154,0.13,0.154,0.231V39.75z"/><path fill="#472b29" d="M44.13,51.274c-0.188,0-0.37-0.108-0.454-0.291l-2.093-4.541c-0.115-0.251-0.006-0.548,0.245-0.663 c0.247-0.115,0.548-0.007,0.663,0.245l2.093,4.541c0.115,0.251,0.006,0.548-0.245,0.663C44.271,51.26,44.2,51.274,44.13,51.274z"/><path fill="#472b29" d="M36.571,57.261c-0.115,0-0.23-0.039-0.325-0.12l-3.801-3.249c-0.21-0.179-0.234-0.495-0.055-0.705 c0.18-0.21,0.495-0.234,0.705-0.055l3.801,3.249c0.21,0.179,0.234,0.495,0.055,0.705C36.853,57.202,36.712,57.261,36.571,57.261z"/><path fill="#472b29" d="M32.212,65.862c-0.045,0-0.091-0.006-0.136-0.019l-4.812-1.36 c-0.266-0.075-0.421-0.352-0.346-0.617s0.352-0.419,0.617-0.345l4.812,1.36c0.266,0.075,0.421,0.352,0.346,0.617 C32.631,65.718,32.431,65.862,32.212,65.862z"/><path fill="#472b29" d="M53.4,49c-0.276,0-0.5-0.224-0.5-0.5v-5c0-0.276,0.224-0.5,0.5-0.5s0.5,0.224,0.5,0.5v5 C53.9,48.776,53.677,49,53.4,49z"/><path fill="#472b29" d="M62.771,51.274c-0.07,0-0.142-0.015-0.209-0.046c-0.251-0.115-0.36-0.413-0.245-0.663l2.093-4.541 c0.115-0.251,0.414-0.36,0.663-0.245c0.251,0.115,0.36,0.413,0.245,0.663l-2.093,4.541C63.141,51.167,62.959,51.274,62.771,51.274 z"/><g><path fill="#472b29" d="M70.329,57.261c-0.141,0-0.281-0.059-0.38-0.175c-0.18-0.21-0.155-0.526,0.055-0.705l3.801-3.249 c0.211-0.179,0.526-0.155,0.705,0.055c0.18,0.21,0.155,0.526-0.055,0.705l-3.801,3.249C70.56,57.222,70.444,57.261,70.329,57.261z"/></g><g><path fill="#472b29" d="M74.688,65.862c-0.219,0-0.419-0.144-0.481-0.364c-0.075-0.266,0.08-0.542,0.346-0.617l4.812-1.36 c0.265-0.074,0.542,0.08,0.617,0.345c0.075,0.266-0.08,0.542-0.346,0.617l-4.812,1.36C74.779,65.855,74.733,65.862,74.688,65.862z"/></g></g></svg>